<?xml version="1.0" standalone="no"?>
<!DOCTYPE svg PUBLIC "-//W3C//DTD SVG 20010904//EN"
 "http://www.w3.org/TR/2001/REC-SVG-20010904/DTD/svg10.dtd">
<svg version="1.0" xmlns="http://www.w3.org/2000/svg"
 width="300.000000pt" height="267.000000pt" viewBox="0 0 300.000000 267.000000"
 preserveAspectRatio="xMidYMid meet">
<metadata>
Created by potrace 1.10, written by Peter Selinger 2001-2011
</metadata>
<g transform="translate(0.000000,267.000000) scale(0.100000,-0.100000)"
fill="#000000" stroke="none">
<path d="M1032 2279 c-14 -29 -72 -97 -149 -175 -69 -71 -150 -164 -180 -206
-60 -85 -83 -96 -120 -55 -57 62 -69 121 -48 254 17 113 19 271 2 188 -5 -22
-24 -89 -43 -149 -63 -197 -56 -291 31 -396 25 -30 76 -100 114 -156 103 -150
126 -166 339 -234 192 -61 272 -123 272 -209 0 -48 10 -61 55 -71 44 -10 90
-3 105 15 17 21 23 106 11 170 -17 91 -54 155 -145 253 -55 59 -86 101 -91
122 -5 24 -10 29 -16 19 -22 -35 4 -112 56 -169 34 -37 75 -101 75 -116 0 -16
-188 102 -238 150 -19 17 -46 54 -60 81 -24 45 -27 60 -27 160 0 61 4 128 8
150 l8 40 -25 -40 c-50 -77 -66 -191 -46 -310 9 -51 10 -79 3 -86 -36 -36
-152 66 -178 156 -30 101 -3 164 155 361 102 127 164 235 158 276 -3 21 -6 18
-26 -23z"/>
<path d="M1930 2309 c0 -47 66 -161 169 -289 147 -183 178 -257 150 -357 -22
-82 -147 -189 -180 -156 -5 5 -5 32 2 69 16 85 7 229 -18 284 -23 51 -59 100
-49 66 20 -62 28 -168 17 -232 -21 -121 -66 -179 -201 -262 -41 -25 -86 -54
-99 -64 -50 -38 -35 3 34 92 56 73 75 112 75 154 0 47 -16 54 -24 11 -5 -24
-29 -59 -84 -117 -98 -105 -116 -130 -136 -197 -21 -71 -22 -204 -1 -224 23
-23 67 -29 111 -15 37 13 39 15 45 66 4 33 16 64 32 86 33 43 139 97 257 131
177 51 224 84 320 226 32 47 78 108 101 135 23 27 53 73 67 103 34 75 28 175
-22 329 -20 63 -36 128 -36 145 0 24 -3 28 -10 17 -14 -22 -12 -93 5 -190 26
-147 16 -212 -42 -272 -45 -47 -64 -37 -134 67 -18 28 -93 111 -165 186 -75
78 -143 157 -158 185 -22 42 -25 45 -26 23z"/>
<path d="M693 1353 c-19 -7 -16 -21 16 -88 56 -118 139 -163 320 -175 64 -4
125 -11 135 -15 19 -8 19 -8 0 24 -25 44 -118 128 -187 169 -87 53 -246 100
-284 85z"/>
<path d="M2192 1340 c-148 -39 -283 -129 -364 -243 -21 -29 -21 -30 -2 -22 10
4 74 11 141 16 139 8 195 27 256 87 45 43 89 124 85 155 -4 29 -27 30 -116 7z"/>
<path d="M1188 852 c6 -48 18 -62 54 -62 58 0 46 45 -22 80 l-36 18 4 -36z"/>
<path d="M1769 869 c-38 -23 -63 -54 -54 -69 4 -6 19 -10 35 -10 32 0 66 39
57 64 -3 7 0 19 6 25 18 18 -5 12 -44 -10z"/>
<path d="M1395 381 c-9 -15 8 -35 51 -62 36 -22 45 -55 19 -65 -8 -4 -12 -10
-9 -15 6 -10 54 -12 78 -3 13 5 12 9 -7 25 l-22 19 49 43 c55 49 56 74 2 62
-42 -9 -74 -9 -117 0 -24 5 -39 3 -44 -4z"/>
</g>
</svg>
