<?xml version="1.0" standalone="no"?>
<!DOCTYPE svg PUBLIC "-//W3C//DTD SVG 20010904//EN"
 "http://www.w3.org/TR/2001/REC-SVG-20010904/DTD/svg10.dtd">
<svg version="1.0" xmlns="http://www.w3.org/2000/svg"
 width="300.000000pt" height="267.000000pt" viewBox="0 0 300.000000 267.000000"
 preserveAspectRatio="xMidYMid meet">
<metadata>
Created by potrace 1.10, written by Peter Selinger 2001-2011
</metadata>
<g transform="translate(0.000000,267.000000) scale(0.100000,-0.100000)"
fill="#000000" stroke="none">
<path d="M1057 2343 c-4 -3 -7 -14 -7 -23 0 -30 -57 -104 -173 -221 -63 -64
-140 -152 -171 -196 -31 -45 -63 -83 -70 -86 -34 -13 -97 69 -111 144 -4 20 0
76 9 127 18 104 21 242 6 242 -5 0 -10 -18 -10 -39 0 -22 -16 -90 -36 -153
-66 -206 -55 -307 45 -419 26 -30 70 -88 96 -128 95 -146 147 -185 321 -235
212 -60 294 -122 294 -223 0 -34 5 -45 23 -54 34 -19 113 -17 133 3 37 37 26
195 -21 288 -13 25 -60 85 -104 133 -84 90 -105 124 -95 154 5 16 3 15 -10 -1
-33 -40 -14 -100 56 -186 66 -80 102 -155 56 -114 -13 11 -63 45 -111 75 -157
96 -207 176 -207 333 0 45 7 105 15 132 18 59 18 57 5 49 -16 -10 -52 -85 -66
-140 -17 -61 -18 -138 -3 -223 7 -41 8 -67 2 -73 -36 -36 -152 66 -178 155
-30 103 0 169 168 378 48 60 98 130 111 157 37 72 59 171 33 144z m-122 -243
c-3 -5 -11 -10 -16 -10 -6 0 -7 5 -4 10 3 6 11 10 16 10 6 0 7 -4 4 -10z m-71
-77 c-27 -32 -53 -61 -59 -65 -5 -4 -6 -8 -2 -8 4 0 -1 -9 -11 -20 -27 -30
-64 -108 -77 -165 -10 -41 -9 -60 3 -105 15 -52 73 -140 94 -140 5 0 18 -9 29
-19 33 -30 69 -35 92 -13 21 22 24 46 13 115 -9 60 5 61 23 2 7 -25 17 -45 22
-45 5 0 9 -6 9 -13 0 -11 25 -35 119 -117 10 -8 24 -16 32 -18 8 -2 21 -9 29
-16 28 -23 108 -66 124 -66 9 0 17 8 17 18 1 9 2 24 3 32 0 8 -1 17 -4 20 -3
3 -18 23 -33 45 l-29 40 42 -45 c68 -71 73 -82 89 -190 6 -42 6 -57 3 -122 -2
-32 -26 -42 -77 -32 -31 5 -35 10 -35 37 0 41 -33 108 -70 141 -17 14 -33 27
-37 27 -17 3 -73 33 -73 39 0 4 -6 7 -12 7 -15 0 -218 63 -233 72 -5 3 -12 6
-15 6 -20 3 -50 18 -50 26 0 5 -6 9 -12 9 -16 0 -76 71 -99 116 -9 18 -19 30
-23 27 -3 -4 -6 0 -6 8 0 12 -31 53 -133 179 -21 27 -33 74 -36 138 -1 42 2
62 10 62 7 0 10 -11 7 -30 -3 -16 -1 -30 3 -30 4 0 13 -15 19 -34 13 -41 81
-106 110 -106 11 0 30 12 43 26 12 15 27 32 34 39 7 7 9 15 6 19 -3 3 2 8 11
12 9 3 14 9 11 14 -5 8 156 180 169 180 5 0 -13 -26 -40 -57z"/>
<path d="M1928 2345 c-10 -10 11 -84 39 -138 29 -58 54 -94 130 -185 187 -223
208 -335 88 -459 -49 -51 -98 -74 -116 -56 -5 5 -5 32 2 69 6 32 9 100 7 150
-3 78 -8 101 -37 158 -18 36 -36 66 -42 66 -12 0 -12 -1 5 -41 33 -81 28 -237
-11 -314 -25 -50 -94 -114 -178 -165 -45 -27 -89 -58 -99 -69 -11 -12 -23 -21
-28 -21 -14 0 21 60 79 137 58 75 77 139 56 178 -8 14 -11 10 -17 -23 -5 -34
-21 -57 -91 -130 -117 -123 -138 -168 -143 -302 -3 -86 -1 -108 11 -118 25
-21 80 -25 118 -9 33 14 36 19 42 67 12 100 79 149 292 215 66 21 136 46 155
56 50 25 107 84 158 164 25 39 67 97 95 130 109 131 123 224 62 415 -20 60
-39 132 -42 160 -3 27 -10 47 -14 44 -14 -8 -10 -121 6 -207 27 -139 16 -209
-42 -269 -45 -47 -64 -37 -133 67 -19 28 -88 106 -155 175 -130 134 -162 174
-180 226 -6 19 -14 32 -17 29z m308 -421 c5 -13 13 -22 16 -18 4 3 14 -9 23
-27 20 -38 73 -89 94 -89 52 0 131 119 131 199 0 24 3 42 6 39 8 -9 8 -151 -1
-179 -4 -13 -14 -32 -23 -41 -8 -10 -11 -18 -7 -18 5 0 0 -7 -11 -15 -10 -8
-15 -15 -11 -15 5 0 2 -7 -7 -15 -29 -29 -84 -100 -131 -170 -44 -65 -102
-125 -116 -122 -4 1 -15 -5 -25 -14 -24 -20 -123 -51 -137 -42 -5 3 -7 1 -4
-5 5 -6 -8 -13 -33 -17 -22 -4 -42 -11 -45 -15 -3 -5 -12 -7 -20 -3 -8 3 -15
1 -15 -4 0 -8 -33 -25 -85 -43 -27 -9 -104 -95 -109 -121 -4 -16 -8 -42 -12
-58 -4 -24 -11 -30 -46 -35 -31 -5 -45 -3 -60 11 -16 15 -18 27 -14 92 2 42
10 90 17 106 7 17 13 32 13 35 3 18 58 99 71 104 12 4 11 -2 -5 -34 -23 -46
-25 -63 -7 -78 12 -10 88 33 220 124 48 33 112 113 127 159 15 47 31 45 18 -2
-16 -60 -11 -106 14 -126 28 -23 61 -16 105 24 19 16 38 29 44 29 6 0 7 5 4
10 -3 6 -1 10 4 10 6 0 22 23 37 51 30 60 34 152 10 211 -19 46 -67 118 -122
183 -73 88 -68 100 8 20 40 -42 78 -88 84 -101z"/>
<path d="M684 1346 c-10 -26 23 -100 67 -150 64 -72 130 -98 275 -105 93 -5
128 -11 149 -25 l28 -18 -34 47 c-95 132 -267 236 -431 260 -39 6 -49 4 -54
-9z m111 -31 c66 -17 189 -74 225 -105 113 -96 114 -94 -11 -88 -85 4 -114 9
-153 29 -43 21 -121 97 -121 117 0 4 -3 12 -6 17 -28 49 -20 53 66 30z"/>
<path d="M2210 1346 c-148 -34 -283 -118 -369 -230 -44 -57 -54 -80 -20 -50
16 15 43 19 143 25 139 7 204 29 264 90 41 41 84 123 80 152 -4 27 -25 30 -98
13z m70 -31 c0 -35 -83 -145 -109 -145 -6 0 -11 -4 -11 -10 0 -6 -3 -9 -7 -8
-5 1 -21 -5 -38 -12 -34 -15 -225 -27 -225 -13 0 25 151 135 204 149 14 3 26
11 26 17 0 6 2 8 5 5 3 -3 29 3 58 13 57 19 97 21 97 4z"/>
<path d="M1174 886 c9 -14 16 -36 16 -49 0 -31 18 -47 52 -47 32 0 47 23 29
44 -6 7 -34 27 -62 45 -50 31 -51 31 -35 7z m61 -56 c3 -5 1 -10 -4 -10 -6 0
-11 5 -11 10 0 6 2 10 4 10 3 0 8 -4 11 -10z"/>
<path d="M1790 884 c-65 -43 -71 -49 -73 -69 -2 -16 5 -21 30 -23 25 -3 35 2
48 22 9 14 15 31 12 38 -2 7 2 21 11 31 23 26 11 27 -28 1z"/>
<path d="M1386 381 c-6 -9 24 -39 67 -66 35 -22 34 -60 0 -59 -31 1 -12 -22
24 -29 29 -5 83 10 83 24 0 4 -6 6 -13 3 -8 -3 -20 3 -28 12 -12 14 -10 19 16
41 69 56 76 63 70 73 -9 14 -55 12 -86 -4 -22 -11 -29 -11 -44 0 -21 15 -81
19 -89 5z m132 -47 c-11 -11 -23 -14 -35 -9 -16 7 -15 9 7 15 40 12 45 11 28
-6z"/>
</g>
</svg>
